#!OML:ASF F:\VICON\USERDATA\INSTALL\Justin_Nancy\Justin_Nancy.ASF
:FULLY-SPECIFIED
:DEGREES
224
root -0.169501 17.7301 5.41368 -1.05736 -1.43805 -2.70565
lowerback 7.45693 -0.463769 1.1296
upperback 0.550971 -0.388926 3.56723
thorax -3.59699 -0.18563 3.10391
lowerneck -16.9989 -3.24295 -8.92332
upperneck 21.6281 -3.38642 5.39382
head 9.934 -1.68903 2.92642
rclavicle -1.12313e-014 5.56597e-015
rhumerus -31.9944 -16.0567 -75.6202
rradius 25.9599
rwrist 11.5688
rhand -14.3274 13.7987
rfingers 7.12502
rthumb 11.8134 -15.8481
lclavicle -1.12313e-014 5.56597e-015
lhumerus -33.269 10.5047 85.075
lradius 26.4398
lwrist -10.9934
lhand -14.6048 27.9159
lfingers 7.12502
lthumb 11.5459 417.578
rfemur -5.16284 4.74179 27.9864
rtibia 16.4863
rfoot -5.10838 -3.84752
rtoes 4.1796
lfemur -20.7094 2.11344 -17.1845
ltibia 67.9699
lfoot -0.664086 3.46897
ltoes -5.30391
225
root -0.166821 17.7157 5.54651 -0.946625 -1.6461 -2.64999
lowerback 7.23541 -0.315562 1.23123
upperback 0.617047 -0.197674 3.44265
thorax -3.41365 -0.0938448 2.89292
lowerneck -16.9178 -3.28994 -8.85891
upperneck 21.5468 -3.47305 5.38623
head 9.89538 -1.72465 2.90018
rclavicle 7.65321e-015 6.36111e-015
rhumerus -31.3793 -15.5752 -76.0501
rradius 26.2125
rwrist 11.0197
rhand -14.4032 13.2091
rfingers 7.12502
rthumb 11.7403 -16.4419
lclavicle 7.65321e-015 6.36111e-015
lhumerus -33.5118 10.5158 84.9727
lradius 26.3809
lwrist -11.0403
lhand -14.232 28.3729
lfingers 7.12502
lthumb 11.9054 418.014
rfemur -4.87054 4.56493 27.9245
rtibia 16.8735
rfoot -5.84715 -3.66286
rtoes 4.33024
lfemur -21.8315 2.01078 -17.2989
ltibia 67.5806
lfoot -1.25374 3.69017
ltoes -2.29597
226
root -0.171097 17.6989 5.67129 -0.90218 -1.84509 -2.90845
lowerback 7.33218 -0.19514 1.62012
upperback 0.603433 -0.00449406 3.36409
thorax -3.48995 -0.00387802 2.57328
lowerneck -16.7301 -3.24576 -8.70494
upperneck 21.4438 -3.48626 5.46149
head 9.82213 -1.71096 2.89907
rclavicle 1.09332e-015 1.27222e-014
rhumerus -31.021 -14.9255 -76.5711
rradius 26.7058
rwrist 10.3371
rhand -14.4289 12.3337
rfingers 7.12502
rthumb 11.7155 -17.3187
lclavicle 1.09332e-015 1.27222e-014
lhumerus -33.834 10.1596 84.8936
lradius 26.4652
lwrist -10.6313
lhand -14.2024 29.1481
lfingers 7.12502
lthumb 11.9339 418.788
rfemur -4.57798 4.65719 28.2793
rtibia 17.271
rfoot -6.44254 -3.79394
rtoes 3.62321
lfemur -22.91 2.02416 -17.0036
ltibia 67.1404
lfoot -2.17803 3.8687
ltoes -1.22258
227
root -0.179252 17.6724 5.79905 -0.930694 -2.19765 -3.42765
lowerback 7.44971 -0.0356368 2.1844
upperback 0.671347 0.25917 3.44258
thorax -3.49214 0.119133 2.3103
lowerneck -16.8868 -3.28495 -8.89407
upperneck 21.5983 -3.54098 5.71131
head 9.91902 -1.72257 3.01364
rclavicle -6.70898e-015 -9.54166e-015
rhumerus -30.5854 -14.2853 -76.9703
rradius 27.0956
rwrist 9.51853
rhand -14.3297 11.5961
rfingers 7.12502
rthumb 11.8112 -18.0508
lclavicle -6.70898e-015 -9.54166e-015
lhumerus -34.0517 9.89764 84.9301
lradius 26.6473
lwrist -10.0489
lhand -14.2015 29.0401
lfingers 7.12502
lthumb 11.9348 418.68
rfemur -4.26886 4.89308 28.9664
rtibia 17.7009
rfoot -7.04757 -3.89136
rtoes 2.93686
lfemur -23.8004 2.28688 -16.4003
ltibia 66.63
lfoot -3.048 4.09787
ltoes -2.23301
228
root -0.184735 17.6485 5.9378 -0.905884 -2.54835 -3.53017
lowerback 7.36756 0.0993387 2.26159
upperback 0.708547 0.440409 3.46224
thorax -3.41158 0.208356 2.2681
lowerneck -17.0473 -3.29504 -8.98675
upperneck 21.9124 -3.52329 5.70563
head 10.0619 -1.7236 3.03376
rclavicle -3.32964e-015 3.73715e-014
rhumerus -30.1929 -13.2607 -77.3643
rradius 27.3988
rwrist 8.21662
rhand -14.0564 10.8277
rfingers 7.12502
rthumb 12.0747 -18.8039
lclavicle -3.32964e-015 3.73715e-014
lhumerus -34.2581 10.1004 84.8199
lradius 26.5288
lwrist -10.0413
lhand -14.1347 28.2625
lfingers 7.12502
lthumb 11.9992 417.899
rfemur -3.97877 5.09044 29.1543
rtibia 18.171
rfoot -7.74571 -3.9193
rtoes 2.84584
lfemur -24.5679 2.51203 -16.3144
ltibia 65.9352
lfoot -3.78666 4.59734
ltoes -2.9573
